<svg xmlns="http://www.w3.org/2000/svg" shape-rendering="geometricPrecision" text-rendering="geometricPrecision" image-rendering="optimizeQuality" fill-rule="evenodd" clip-rule="evenodd" viewBox="0 0 363 511.49"><path fill-rule="nonzero" d="M130.14 187.6c-3.27-3.32-3.22-8.67.09-11.93 3.32-3.27 8.67-3.22 11.93.09l23.01 23.46 55.21-66.51c2.97-3.58 8.29-4.07 11.86-1.1 3.57 2.97 4.06 8.28 1.09 11.86l-61.73 74.34c-3.32 3.26-8.67 3.21-11.93-.1l-29.53-30.11zM181.5 62.02c31.18 0 59.42 12.64 79.85 33.07 20.43 20.43 33.07 48.67 33.07 79.85 0 31.18-12.64 59.42-33.07 79.85-20.46 20.42-48.69 33.08-79.85 33.08-31.15 0-59.39-12.66-79.82-33.08-20.46-20.43-33.1-48.67-33.1-79.85 0-31.18 12.64-59.42 33.07-79.85 20.43-20.43 48.67-33.07 79.85-33.07zm67.9 45.03c-17.37-17.37-41.38-28.12-67.9-28.12-26.51 0-50.53 10.75-67.9 28.12-17.37 17.37-28.11 41.38-28.11 67.89 0 26.51 10.74 50.53 28.11 67.9 17.36 17.37 41.37 28.12 67.9 28.12 26.53 0 50.54-10.75 67.91-28.1 17.36-17.39 28.1-41.41 28.1-67.92 0-26.51-10.74-50.52-28.11-67.89zM46.73 0H303.5c16.34 0 31.21 6.71 41.99 17.48C356.29 28.29 363 43.17 363 59.5v443.53c0 4.67-3.79 8.46-8.46 8.46-2.05 0-3.94-.74-5.41-1.97L181.42 378.99 13.64 509.67c-3.66 2.86-8.97 2.21-11.82-1.45a8.413 8.413 0 01-1.78-5.19L0 46.73c0-12.82 5.25-24.5 13.72-32.98C22.25 5.24 33.92 0 46.73 0zM303.5 16.91H46.73c-8.21 0-15.67 3.35-21.05 8.73-5.42 5.42-8.77 12.88-8.77 21.09v439.04l158.84-123.72c2.98-2.71 7.58-2.98 10.87-.42l159.47 124.12V59.5c0-11.7-4.8-22.36-12.51-30.09-7.72-7.71-18.36-12.5-30.08-12.5z"/></svg>